<svg id="Capa_1" enable-background="new 0 0 512 512" height="512" viewBox="0 0 512 512" width="512" xmlns="http://www.w3.org/2000/svg"><g><g><path d="m476.844 71.176h-441.688c-19.385 0-35.156 15.772-35.156 35.157v299.334c0 19.385 15.771 35.157 35.156 35.157h441.688c19.385 0 35.156-15.772 35.156-35.157v-299.334c0-19.385-15.772-35.157-35.156-35.157zm15.156 334.491c0 8.357-6.799 15.157-15.156 15.157h-441.688c-8.358 0-15.156-6.799-15.156-15.157v-299.334c0-8.357 6.799-15.157 15.156-15.157h441.688c8.357 0 15.156 6.799 15.156 15.157z"/><path d="m231.736 128.439h-175.851c-5.522 0-10 4.477-10 10v195.528c0 5.523 4.478 10 10 10h175.852c5.523 0 10-4.477 10-10v-195.528c-.001-5.524-4.478-10-10.001-10zm-87.925 119.239c-15.154 0-27.483-12.329-27.483-27.483s12.329-27.483 27.483-27.483 27.483 12.329 27.483 27.483-12.329 27.483-27.483 27.483zm-32.975 76.289v-50.012c0-3.461 2.816-6.277 6.277-6.277h53.395c3.461 0 6.277 2.816 6.277 6.277v50.012zm110.9 0h-24.951v-50.012c0-10.802-6.552-20.103-15.891-24.137 6.505-8.127 10.4-18.429 10.4-29.624 0-26.183-21.301-47.483-47.483-47.483-26.183 0-47.483 21.301-47.483 47.483 0 11.195 3.895 21.497 10.4 29.624-9.339 4.034-15.891 13.334-15.891 24.137v50.012h-24.952v-175.528h155.852v175.528z"/><path d="m456.115 128.439h-171.064c-5.523 0-10 4.477-10 10v50.887c0 5.523 4.477 10 10 10h171.064c5.522 0 10-4.477 10-10v-50.887c0-5.524-4.477-10-10-10zm-10 50.886h-151.064v-30.887h151.064z"/><path d="m343.877 223.984c-3.855-3.657-9.897-3.661-13.755-.009-2.269 2.146-55.549 53.067-55.549 97.164 0 34.42 28.002 62.422 62.422 62.422s62.422-28.002 62.422-62.422c0-43.963-53.271-95.004-55.54-97.155zm-6.882 139.577c-23.392 0-42.422-19.031-42.422-42.422 0-25.333 26.326-58.606 42.414-75.689 16.094 17.12 42.43 50.439 42.43 75.689 0 23.392-19.03 42.422-42.422 42.422z"/><path d="m326.995 302.4v3.171h-3.171c-5.522 0-10 4.477-10 10s4.478 10 10 10h3.171v3.171c0 5.523 4.478 10 10 10 5.523 0 10-4.477 10-10v-3.171h3.172c5.523 0 10-4.477 10-10s-4.477-10-10-10h-3.172v-3.171c0-5.523-4.477-10-10-10-5.522 0-10 4.477-10 10z"/><path d="m456.115 231.203h-66.698c-5.522 0-10 4.477-10 10s4.478 10 10 10h66.698c5.522 0 10-4.477 10-10s-4.477-10-10-10z"/><path d="m456.115 275.322h-28.507c-5.522 0-10 4.477-10 10s4.478 10 10 10h28.507c5.522 0 10-4.477 10-10s-4.477-10-10-10z"/><path d="m456.115 319.442h-28.507c-5.522 0-10 4.477-10 10s4.478 10 10 10h28.507c5.522 0 10-4.477 10-10s-4.477-10-10-10z"/><path d="m456.115 363.561h-48.422c-5.522 0-10 4.477-10 10s4.478 10 10 10h48.422c5.522 0 10-4.477 10-10 0-5.522-4.477-10-10-10z"/><path d="m231.736 363.561h-42.719c-5.522 0-10 4.477-10 10s4.478 10 10 10h42.719c5.523 0 10-4.477 10-10 0-5.522-4.477-10-10-10z"/><path d="m98.604 363.561h-42.72c-5.522 0-10 4.477-10 10s4.478 10 10 10h42.72c5.522 0 10-4.477 10-10 0-5.522-4.477-10-10-10z"/><path d="m149.54 365.25c-3.576-2.386-8.39-2.175-11.761.481-3.18 2.505-4.526 6.864-3.349 10.732 1.227 4.03 4.954 6.929 9.17 7.09 4.253.163 8.252-2.481 9.749-6.47 1.605-4.273.031-9.319-3.809-11.833z"/></g></g></svg>