<?xml version="1.0" encoding="iso-8859-1"?>
<!-- Generator: Adobe Illustrator 19.0.0, SVG Export Plug-In . SVG Version: 6.00 Build 0)  -->
<svg version="1.1" id="Capa_1" xmlns="http://www.w3.org/2000/svg" xmlns:xlink="http://www.w3.org/1999/xlink" x="0px" y="0px"
	 viewBox="0 0 483.377 483.377" style="enable-background:new 0 0 483.377 483.377;" xml:space="preserve">
<g>
	<g>
		<path d="M474.673,218.525l-55.808-102.4h40.448c7.168,0,13.312-6.144,13.312-13.312c0-7.168-6.144-13.312-13.312-13.312h-171.52
			c-7.168-25.6-34.304-40.448-59.904-33.28c-16.384,4.608-28.672,17.408-33.28,33.28H23.601c-7.168,0-13.312,6.144-13.312,13.312
			c0,7.168,6.144,13.312,13.312,13.312h40.448l-55.808,102.4c-5.12,2.048-8.704,7.168-8.192,12.8
			c0,47.616,38.912,86.528,86.528,86.528c47.616,0,86.528-38.912,86.528-86.528c0-5.632-3.584-10.24-8.192-12.288l-56.32-103.424
			h87.04c4.608,15.872,16.896,28.672,33.28,33.28v192.512c-35.84,6.144-61.952,37.888-61.952,74.24
			c0,7.168,6.144,13.312,13.312,13.312h124.416c7.168,0,13.312-6.144,13.312-13.312c0-36.352-26.112-67.584-61.952-74.24v-192
			c15.872-4.608,28.672-16.896,33.28-33.28h87.04l-57.344,102.4c-5.632,2.048-9.216,7.168-8.704,12.8
			c0,47.616,38.912,86.528,86.528,86.528c47.616,0,86.528-38.912,86.528-86.528C483.377,225.693,480.305,220.573,474.673,218.525z
			 M134.193,217.501H38.961l47.616-87.552L134.193,217.501z M349.745,217.501l47.616-87.552l47.616,87.552H349.745z"/>
	</g>
</g>
<g>
</g>
<g>
</g>
<g>
</g>
<g>
</g>
<g>
</g>
<g>
</g>
<g>
</g>
<g>
</g>
<g>
</g>
<g>
</g>
<g>
</g>
<g>
</g>
<g>
</g>
<g>
</g>
<g>
</g>
</svg>
