<svg id="Layer_1" enable-background="new 0 0 512 512" height="512" viewBox="0 0 512 512" width="512" xmlns="http://www.w3.org/2000/svg"><g><path d="m234.4 140.1-4.6 26.4 23.8-12.4c1.5-.8 3.2-.8 4.7 0l23.7 12.5-4.5-26.5c-.3-1.6.3-3.3 1.4-4.4l19.3-18.7-26.5-3.9c-1.6-.2-3-1.3-3.8-2.7l-11.8-24.1-11.9 24c-.7 1.5-2.1 2.5-3.8 2.7l-26.6 3.8 19.2 18.8c1.2 1.2 1.7 2.9 1.4 4.5z"/><path d="m390.3 162.1-3.9 22.4 20.1-10.5c1.5-.8 3.2-.8 4.7 0l20.1 10.6-3.8-22.4c-.3-1.6.3-3.3 1.4-4.4l16.3-15.8-22.5-3.3c-1.6-.2-3-1.3-3.8-2.7l-10-20.4-10.1 20.4c-.7 1.5-2.1 2.5-3.8 2.7l-22.5 3.2 16.2 15.9c1.3 1 1.9 2.7 1.6 4.3z"/><path d="m84.4 162.1-3.9 22.4 20.1-10.5c1.5-.8 3.2-.8 4.7 0l20.1 10.6-3.8-22.4c-.3-1.6.3-3.3 1.4-4.4l16.3-15.8-22.5-3.3c-1.6-.2-3-1.3-3.8-2.7l-10-20.4-10 20.2c-.7 1.5-2.1 2.5-3.8 2.7l-22.5 3.2 16.3 15.9c1.2 1.2 1.7 2.9 1.4 4.5z"/><path d="m218.9 234.1v28.1c0 20.5 16.6 37.1 37.1 37.1s37.1-16.6 37.1-37.1v-28.1c0-20.5-16.6-37.1-37.1-37.1s-37.1 16.6-37.1 37.1z"/><path d="m312.1 309.3h-18c-.1 0-.2 0-.3 0-4.2-.1-8.3-1.8-11.4-4.7l-3 8.4c-4.6 12.9-18.8 19.6-31.7 15-7.1-2.5-12.6-8.2-15.1-15.3l-2.8-8.2c-3.2 3-7.5 4.7-12 4.7h-18c-24.4 0-44.1 19.8-44.1 44.1v72.2h200.5v-72.2c0-24.2-19.7-43.9-44.1-44z"/><path d="m405.3 312.9c18.4 0 33.3-14.9 33.3-33.3v-25.5c0-18.4-14.9-33.3-33.3-33.3s-33.3 14.9-33.3 33.3v25.5c0 18.4 14.9 33.2 33.3 33.3z"/><path d="m456.3 320.8h-16.3c-.1 0-.2 0-.3 0-3.7-.1-7.3-1.5-10.1-3.9l-2.5 7c-4.3 12-17.5 18.2-29.4 13.9-6.6-2.4-11.7-7.6-14-14.2l-2.3-6.8c-3 2.5-6.8 3.9-10.7 3.9h-15.3c7.1 9.4 11 20.9 11 32.6v72.2h129.6v-65.2c0-21.7-17.8-39.4-39.7-39.5z"/><path d="m141.4 320.8c-.1 0-.2 0-.3 0-3.7-.1-7.3-1.5-10.1-3.9l-2.5 7c-4.3 12-17.5 18.2-29.4 13.9-6.6-2.4-11.7-7.6-14-14.2l-2.3-6.8c-3 2.5-6.8 3.9-10.7 3.9h-16.4c-21.9 0-39.6 17.8-39.7 39.7v65.2h129.7v-72.2c0-11.8 3.8-23.3 11-32.6z"/><path d="m106.7 220.8c-18.4 0-33.3 14.9-33.3 33.3v25.5c0 18.4 14.9 33.3 33.3 33.3s33.3-14.9 33.3-33.3v-25.5c0-18.4-14.9-33.3-33.3-33.3z"/></g></svg>