<?xml version="1.0" encoding="iso-8859-1"?>
<!-- Generator: Adobe Illustrator 19.0.0, SVG Export Plug-In . SVG Version: 6.00 Build 0)  -->
<svg version="1.1" id="Capa_1" xmlns="http://www.w3.org/2000/svg" xmlns:xlink="http://www.w3.org/1999/xlink" x="0px" y="0px"
	 viewBox="0 0 409.088 409.088" style="enable-background:new 0 0 409.088 409.088;" xml:space="preserve">
<g>
	<g>
		<g>
			<circle cx="161.442" cy="153.077" r="19.331"/>
			<path d="M211.082,137.41c0.004,10.676,8.662,19.327,19.338,19.324c10.676-0.004,19.327-8.662,19.324-19.338
				c0-0.172-0.002-0.344-0.007-0.515c-0.283-10.471-8.855-18.812-19.331-18.808C219.729,118.077,211.078,126.734,211.082,137.41z"/>
			<path d="M93.001,118.073c-10.676,0.004-19.327,8.662-19.324,19.338s8.662,19.327,19.338,19.324
				c10.676-0.004,19.327-8.662,19.324-19.338c0-0.172-0.002-0.344-0.007-0.515C112.049,126.409,103.476,118.069,93.001,118.073z"/>
			<path d="M235.647,189.109c-0.354,0-0.708,0.006-1.062,0.017h-8.882c-10.572-0.178-20.472,5.169-26.122,14.106
				c9.813,9.452,15.454,22.426,15.673,36.049v41.273c20.898-9.404,36.571-24.555,52.245-42.841v-16.718
				C267.508,203.394,253.248,189.118,235.647,189.109z"/>
			<path d="M97.703,189.126h-9.404c-17.763,0-29.78,13.584-29.78,31.869v18.808c10.449,18.286,31.347,32.392,52.245,41.796v-42.318
				c-0.294-13.518,4.998-26.559,14.629-36.049C118.982,194.335,108.669,189.081,97.703,189.126z"/>
			<path d="M166.144,204.799h-8.882c-17.241,0-30.825,15.673-30.825,34.482v47.543c11.477,3.671,23.478,5.436,35.527,5.224
				c12.732-0.31,25.372-2.242,37.616-5.747v-47.02C199.322,220.747,184.661,205.627,166.144,204.799z"/>
			<path d="M160.919,29.256C88.207,29.253,29.26,88.196,29.257,160.908c-0.001,18.549,3.918,36.889,11.5,53.818
				c3.378-23.667,23.636-41.253,47.543-41.273h9.404c15.712,0.063,30.378,7.885,39.184,20.898c6.29-3.311,13.269-5.1,20.376-5.224
				h8.882c6.949,0.064,13.773,1.86,19.853,5.224c9.034-13.026,23.854-20.826,39.706-20.898h8.882
				c22.913-0.245,42.812,15.719,47.543,38.139c6.547-16.276,9.917-33.656,9.927-51.2C291.768,88.086,233.224,29.543,160.919,29.256z
				 M93.001,171.885c-19.332,0-35.004-15.672-35.004-35.004s15.672-35.004,35.004-35.004s35.004,15.672,35.004,35.004
				S112.333,171.885,93.001,171.885z M161.442,188.081C161.442,188.081,161.442,188.081,161.442,188.081
				c-19.332,0-35.004-15.672-35.004-35.004s15.672-35.004,35.004-35.004s35.004,15.672,35.004,35.004
				S180.774,188.081,161.442,188.081z M265.409,136.881c0,19.332-15.672,35.004-35.004,35.004s-35.004-15.672-35.004-35.004
				c0-19.332,15.672-35.004,35.004-35.004S265.409,117.549,265.409,136.881z"/>
			<path d="M320.789,160.391C320.788,71.809,248.978,0,160.396,0C71.814,0,0.005,71.811,0.005,160.393
				c0,88.582,71.811,160.391,160.393,160.391c0.174,0,0.348,0,0.522-0.001C249.297,320.495,320.789,248.769,320.789,160.391z
				 M160.919,307.722C79.551,308.01,13.356,242.282,13.067,160.914C12.779,79.546,78.507,13.351,159.874,13.062
				c81.368-0.289,147.564,65.439,147.852,146.807c0.001,0.174,0.001,0.348,0.001,0.522
				C307.728,241.556,242.084,307.434,160.919,307.722z"/>
			<path d="M402.813,372.505l-67.396-67.396l-30.302,30.302l67.396,67.396c3.911,4.175,9.433,6.46,15.151,6.269
				c5.671-0.053,11.101-2.3,15.151-6.269c3.84-4.134,6.065-9.512,6.269-15.151C408.976,381.996,406.737,376.585,402.813,372.505z"/>
			
				<rect x="272.991" y="288.409" transform="matrix(0.7071 0.7071 -0.7071 0.7071 298.9409 -123.9903)" width="52.297" height="20.898"/>
		</g>
	</g>
</g>
<g>
</g>
<g>
</g>
<g>
</g>
<g>
</g>
<g>
</g>
<g>
</g>
<g>
</g>
<g>
</g>
<g>
</g>
<g>
</g>
<g>
</g>
<g>
</g>
<g>
</g>
<g>
</g>
<g>
</g>
</svg>
